HIERARCHY
ROOT Hips
{
	OFFSET -0.001795 -0.223333 0.028219
	CHANNELS 6 Xposition Yposition Zposition Zrotation Yrotation Xrotation 
	JOINT LeftUpLeg
	{
		OFFSET 0.069520 -0.091406 -0.006815
		CHANNELS 3 Zrotation Yrotation Xrotation
		JOINT LeftLeg
		{
			OFFSET 0.034277 -0.375199 -0.004496
			CHANNELS 3 Zrotation Yrotation Xrotation
			JOINT LeftFoot
			{
				OFFSET -0.013596 -0.397961 -0.043693
				CHANNELS 3 Zrotation Yrotation Xrotation
				JOINT LeftToe
				{
					OFFSET 0.026358 -0.055791 0.119288
					CHANNELS 3 Zrotation Yrotation Xrotation
					End Site
					{
						OFFSET 0.000000 0.000000 0.000000
					}
				}
			}
		}
	}
	JOINT RightUpLeg
	{
		OFFSET -0.067670 -0.090522 -0.004320
		CHANNELS 3 Zrotation Yrotation Xrotation
		JOINT RightLeg
		{
			OFFSET -0.038290 -0.382569 -0.008850
			CHANNELS 3 Zrotation Yrotation Xrotation
			JOINT RightFoot
			{
				OFFSET 0.015774 -0.398415 -0.042312
				CHANNELS 3 Zrotation Yrotation Xrotation
				JOINT RightToe
				{
					OFFSET -0.025372 -0.048144 0.123348
					CHANNELS 3 Zrotation Yrotation Xrotation
					End Site
					{
						OFFSET 0.000000 0.000000 0.000000
					}
				}
			}
		}
	}
	JOINT Spine
	{
		OFFSET -0.002533 0.108963 -0.026696
		CHANNELS 3 Zrotation Yrotation Xrotation
		JOINT Spine1
		{
			OFFSET 0.005487 0.135180 0.001092
			CHANNELS 3 Zrotation Yrotation Xrotation
			JOINT Spine2
			{
				OFFSET 0.001457 0.052922 0.025425
				CHANNELS 3 Zrotation Yrotation Xrotation
				JOINT Neck
				{
					OFFSET -0.002778 0.213870 -0.042857
					CHANNELS 3 Zrotation Yrotation Xrotation
					JOINT Head
					{
						OFFSET 0.005152 0.064970 0.051349
						CHANNELS 3 Zrotation Yrotation Xrotation
						End Site
						{
							OFFSET 0.000000 0.000000 0.000000
						}
					}
				}
				JOINT LeftShoulder
				{
					OFFSET 0.078845 0.121749 -0.034090
					CHANNELS 3 Zrotation Yrotation Xrotation
					JOINT LeftArm
					{
						OFFSET 0.090977 0.030469 -0.008868
						CHANNELS 3 Zrotation Yrotation Xrotation
						JOINT LeftForeArm
						{
							OFFSET 0.259612 -0.012772 -0.027456
							CHANNELS 3 Zrotation Yrotation Xrotation
							JOINT LeftHand
							{
								OFFSET 0.249234 0.008986 -0.001171
								CHANNELS 3 Zrotation Yrotation Xrotation
								End Site
								{
									OFFSET 0.000000 0.000000 0.000000
								}
							}
						}
					}
				}
				JOINT RightShoulder
				{
					OFFSET -0.081759 0.118833 -0.038615
					CHANNELS 3 Zrotation Yrotation Xrotation
					JOINT RightArm
					{
						OFFSET -0.096012 0.032551 -0.009143
						CHANNELS 3 Zrotation Yrotation Xrotation
						JOINT RightForeArm
						{
							OFFSET -0.253742 -0.013329 -0.021401
							CHANNELS 3 Zrotation Yrotation Xrotation
							JOINT RightHand
							{
								OFFSET -0.255298 0.007772 -0.005559
								CHANNELS 3 Zrotation Yrotation Xrotation
								End Site
								{
									OFFSET 0.000000 0.000000 0.000000
								}
							}
						}
					}
				}
			}
		}
	}
}
MOTION
Frames: 7
Frame Time: 0.050000
0.000000 0.981213 0.000000 -1.386356 8.441792 -0.937051 -0.105512 0.238467 2.888959 1.114702 -0.011691 -2.124878 -4.346228 1.189419 17.314329 0.000000 0.000000 0.000000 -0.007199 0.415920 -4.100207 -1.105367 0.508944 10.504399 -1.098771 -6.568103 15.350040 0.000000 0.000000 0.000000 -1.352523 -0.224973 7.110017 1.878735 -1.417043 5.687500 -1.528560 0.360119 -8.263101 1.999921 -2.279332 4.751259 0.000000 0.000000 0.000000 -19.162188 0.316113 -3.547190 -20.850950 -7.154583 -0.570016 9.192566 -11.953459 -0.609327 0.000000 0.000000 0.000000 20.256660 0.459110 -0.893133 25.199455 4.421959 -1.287652 -3.981188 8.619422 0.083204 0.000000 0.000000 0.000000 
-0.000657 0.984065 0.002389 -1.329640 8.248267 -1.078329 -0.160886 0.258661 3.100890 1.351967 0.000129 -2.825097 -4.809506 1.698251 20.123456 0.000000 0.000000 0.000000 0.034273 0.465230 -4.594697 -1.026446 0.527586 11.815264 -2.077594 -8.094213 13.678728 0.000000 0.000000 0.000000 -2.065418 -0.189409 7.379130 1.823287 -1.298564 4.804302 -0.313923 -0.029118 -7.983601 1.057775 -1.473873 4.805523 0.000000 0.000000 0.000000 -18.017407 0.523229 -3.252787 -19.833755 -8.526287 -0.430414 9.785482 -10.825900 -0.590011 0.000000 0.000000 0.000000 18.744698 -0.052022 -1.281613 23.809664 5.029517 -1.083215 -6.293096 9.280042 -0.051973 0.000000 0.000000 0.000000 
-0.002779 0.988331 0.004437 -1.390270 7.849140 -1.226586 0.566510 0.169435 2.374275 1.193829 -0.071484 -0.944275 -5.885345 0.127130 20.221139 0.000000 0.000000 0.000000 0.155530 0.499522 -4.900536 -0.555237 0.448683 12.764302 -1.715246 -7.274228 12.525440 0.000000 0.000000 0.000000 -1.628533 -0.219912 7.468422 2.154575 -1.229275 2.178554 -0.994752 -0.509529 -5.047658 1.528671 -1.890887 5.104412 0.000000 0.000000 0.000000 -16.195593 0.696682 -2.883419 -19.070939 -9.469069 -0.452061 11.991220 -11.308439 -0.833191 0.000000 0.000000 0.000000 18.242533 0.265527 -1.040263 21.070034 5.350173 -1.081511 -6.208474 9.306181 -0.048091 0.000000 0.000000 0.000000 
-0.006399 0.991392 0.005889 -1.385661 7.584918 -1.519439 0.605438 0.154967 2.191407 1.551161 -0.165040 0.280036 -5.637434 -0.286200 18.620481 0.000000 0.000000 0.000000 0.408074 0.492781 -4.740560 -0.394499 0.417329 12.736773 -1.399327 -6.558870 11.790278 0.000000 0.000000 0.000000 -1.911824 -0.194003 7.214981 1.797210 -1.141912 3.352461 0.697764 -1.605417 -5.789549 0.380343 -0.837533 5.172252 0.000000 0.000000 0.000000 -16.214303 1.760696 -3.067814 -17.094923 -10.455263 -0.412119 12.845082 -10.970729 -0.839733 0.000000 0.000000 0.000000 16.028229 -0.084153 -1.460297 19.704651 6.750911 -0.703794 -7.996571 8.992580 -0.159651 0.000000 0.000000 0.000000 
-0.011865 0.995486 0.006972 -1.398427 7.590365 -1.660687 1.238541 0.099801 1.784200 1.120246 -0.169204 1.267371 -5.862741 -0.862952 18.110499 0.000000 0.000000 0.000000 0.896461 0.518760 -4.821807 -0.826663 0.526257 13.077007 -1.698820 -7.117418 11.689417 0.000000 0.000000 0.000000 -2.227754 -0.176005 7.238861 2.638074 -1.587286 3.367403 0.114669 -1.502697 -6.513300 0.646176 -1.155799 5.889201 0.000000 0.000000 0.000000 -15.166124 0.986181 -2.601674 -14.302261 -10.551559 -0.365009 13.448048 -11.048507 -0.905265 0.000000 0.000000 0.000000 15.520745 -0.977064 -1.835081 16.610440 7.250092 -0.582214 -8.695828 10.032440 -0.237284 0.000000 0.000000 0.000000 
-0.018970 0.998790 0.007738 -1.526661 7.323513 -1.794377 1.621697 0.048444 1.228987 1.293447 -0.255399 2.566675 -5.866131 -1.467827 16.970411 0.000000 0.000000 0.000000 1.464130 0.529156 -4.734434 -1.041384 0.573927 12.684734 -1.462699 -6.608447 11.298099 0.000000 0.000000 0.000000 -2.269589 -0.177816 7.367566 2.847936 -1.673807 3.158016 0.488335 -2.107492 -6.457193 0.051916 -0.567657 5.534094 0.000000 0.000000 0.000000 -14.387261 1.340371 -2.503401 -12.124793 -11.370391 -0.364263 13.901013 -10.874647 -0.906188 0.000000 0.000000 0.000000 13.296344 -1.031378 -1.769236 15.786725 8.376863 -0.426735 -10.458046 9.402706 -0.325723 0.000000 0.000000 0.000000 
-0.026802 1.002967 0.008220 -1.437319 6.978239 -1.651417 2.131160 -0.005526 0.646924 1.101999 -0.265341 3.210813 -5.741477 -1.650024 16.343201 0.000000 0.000000 0.000000 2.010011 0.540991 -4.693015 -1.540293 0.675853 11.990080 -1.257765 -6.311745 11.593515 0.000000 0.000000 0.000000 -2.401346 -0.177317 7.716184 3.119282 -1.770731 2.737560 0.378604 -2.198085 -6.589319 0.245607 -0.685016 5.225468 0.000000 0.000000 0.000000 -12.757633 1.069530 -2.111237 -10.671602 -11.429849 -0.383232 13.405065 -10.234859 -0.797911 0.000000 0.000000 0.000000 12.641707 -1.436159 -1.920081 13.318285 9.219572 -0.353593 -10.562762 8.908316 -0.303626 0.000000 0.000000 0.000000 
